<svg width="26" height="19" xmlns="http://www.w3.org/2000/svg">
    <path d="m9.556.1.217.267c-3.9 1.158-5.697 2.917-5.697 2.917s.476-.268 1.278-.646C7.67 1.592 9.513 1.302 10.27 1.236c.13-.023.238-.045.368-.045a17.837 17.837 0 0 1 4.375-.045 17.32 17.32 0 0 1 6.52 2.138s-1.71-1.67-5.393-2.828L16.444.1h.078c.489.01 3.187.162 6.009 2.338 0 0 3.119 5.81 3.119 12.978l-.012.02-.034.056c-.313.486-2.23 3.166-6.582 3.308 0 0-.78-.957-1.43-1.803 2.472-.718 3.612-2.195 3.865-2.564l.042-.063.014-.022a12.273 12.273 0 0 1-2.491 1.313c-1.083.468-2.123.78-3.141.957-2.08.401-3.986.29-5.61-.022a17.814 17.814 0 0 1-3.184-.957c-.499-.2-1.04-.445-1.582-.757-.065-.045-.13-.067-.195-.111a.3.3 0 0 1-.086-.067c-.39-.223-.607-.379-.607-.379s1.04 1.781 3.79 2.627l-.103.135-.212.273c-.567.73-1.135 1.44-1.135 1.44C2.17 18.644.35 15.416.35 15.416c0-7.168 3.12-12.978 3.12-12.978C6.29.262 8.99.11 9.477.1h.078zm-.607 8.304c-1.234 0-2.209 1.113-2.209 2.47 0 1.359.996 2.472 2.21 2.472 1.234 0 2.209-1.113 2.209-2.471.021-1.358-.975-2.471-2.21-2.471zm7.907 0c-1.235 0-2.21 1.113-2.21 2.47 0 1.359.997 2.472 2.21 2.472 1.234 0 2.21-1.113 2.21-2.471s-.976-2.471-2.21-2.471z" fill="#4DC9FF" fill-rule="nonzero"/>
</svg>
